<svg width="211" height="40" viewBox="0 0 211 40" fill="none" xmlns="http://www.w3.org/2000/svg">
<path d="M34.1422 5.85781C30.3647 2.08031 25.3422 0 20 0C14.6578 0 9.63531 2.08031 5.85781 5.85781C2.08031 9.63531 0 14.6578 0 20C0 25.3422 2.08039 30.3646 5.85781 34.1422C9.63523 37.9198 14.6578 40 20 40C25.3422 40 30.3647 37.9197 34.1422 34.1422C37.9197 30.3647 40 25.3422 40 20C40 14.6578 37.9196 9.63539 34.1422 5.85781Z" fill="#33CC95"/>
<g clip-path="url(#clip0_35212_417)">
<path d="M20.5714 8V33.1429" stroke="white" stroke-width="2" stroke-linecap="round" stroke-linejoin="round"/>
<path d="M26.2857 12.5714H17.7143C16.6534 12.5714 15.636 12.9929 14.8859 13.743C14.1357 14.4931 13.7143 15.5106 13.7143 16.5714C13.7143 17.6323 14.1357 18.6497 14.8859 19.3999C15.636 20.15 16.6534 20.5714 17.7143 20.5714H23.4286C24.4894 20.5714 25.5069 20.9929 26.257 21.743C27.0072 22.4932 27.4286 23.5106 27.4286 24.5714C27.4286 25.6323 27.0072 26.6497 26.257 27.3999C25.5069 28.15 24.4894 28.5714 23.4286 28.5714H13.7143" stroke="white" stroke-width="2" stroke-linecap="round" stroke-linejoin="round"/>
</g>
<path d="M65.6726 14.832L62.5526 26H59.9126L57.8166 18.048L55.6246 26L53.0006 26.016L49.9926 14.832H52.3926L54.3606 23.504L56.6326 14.832H59.1286L61.2726 23.456L63.2566 14.832H65.6726ZM72.1273 17.008C72.7993 17.008 73.3966 17.1573 73.9193 17.456C74.4419 17.744 74.8473 18.176 75.1353 18.752C75.4339 19.3173 75.5833 20 75.5833 20.8V26H73.3433V21.104C73.3433 20.4 73.1673 19.8613 72.8153 19.488C72.4633 19.104 71.9833 18.912 71.3753 18.912C70.7566 18.912 70.2659 19.104 69.9033 19.488C69.5513 19.8613 69.3753 20.4 69.3753 21.104V26H67.1353V14.16H69.3753V18.24C69.6633 17.856 70.0473 17.5573 70.5273 17.344C71.0073 17.12 71.5406 17.008 72.1273 17.008ZM85.9534 21.376C85.9534 21.696 85.932 21.984 85.8894 22.24H79.4094C79.4627 22.88 79.6867 23.3813 80.0814 23.744C80.476 24.1067 80.9614 24.288 81.5374 24.288C82.3694 24.288 82.9614 23.9307 83.3134 23.216H85.7294C85.4734 24.0693 84.9827 24.7733 84.2574 25.328C83.532 25.872 82.6414 26.144 81.5854 26.144C80.732 26.144 79.964 25.9573 79.2814 25.584C78.6094 25.2 78.0814 24.6613 77.6974 23.968C77.324 23.2747 77.1374 22.4747 77.1374 21.568C77.1374 20.6507 77.324 19.8453 77.6974 19.152C78.0707 18.4587 78.5934 17.9253 79.2654 17.552C79.9374 17.1787 80.7107 16.992 81.5854 16.992C82.428 16.992 83.18 17.1733 83.8414 17.536C84.5134 17.8987 85.0307 18.416 85.3934 19.088C85.7667 19.7493 85.9534 20.512 85.9534 21.376ZM83.6334 20.736C83.6227 20.16 83.4147 19.7013 83.0094 19.36C82.604 19.008 82.108 18.832 81.5214 18.832C80.9667 18.832 80.4974 19.0027 80.1134 19.344C79.74 19.6747 79.5107 20.1387 79.4254 20.736H83.6334ZM89.8284 18.512C90.1164 18.0427 90.4897 17.6747 90.9484 17.408C91.4177 17.1413 91.951 17.008 92.5484 17.008V19.36H91.9564C91.2524 19.36 90.719 19.5253 90.3564 19.856C90.0044 20.1867 89.8284 20.7627 89.8284 21.584V26H87.5884V17.136H89.8284V18.512ZM102.297 21.376C102.297 21.696 102.276 21.984 102.233 22.24H95.7531C95.8065 22.88 96.0305 23.3813 96.4251 23.744C96.8198 24.1067 97.3051 24.288 97.8811 24.288C98.7131 24.288 99.3051 23.9307 99.6571 23.216H102.073C101.817 24.0693 101.326 24.7733 100.601 25.328C99.8758 25.872 98.9851 26.144 97.9291 26.144C97.0758 26.144 96.3078 25.9573 95.6251 25.584C94.9531 25.2 94.4251 24.6613 94.0411 23.968C93.6678 23.2747 93.4811 22.4747 93.4811 21.568C93.4811 20.6507 93.6678 19.8453 94.0411 19.152C94.4145 18.4587 94.9371 17.9253 95.6091 17.552C96.2811 17.1787 97.0545 16.992 97.9291 16.992C98.7718 16.992 99.5238 17.1733 100.185 17.536C100.857 17.8987 101.374 18.416 101.737 19.088C102.11 19.7493 102.297 20.512 102.297 21.376ZM99.9771 20.736C99.9665 20.16 99.7585 19.7013 99.3531 19.36C98.9478 19.008 98.4518 18.832 97.8651 18.832C97.3105 18.832 96.8411 19.0027 96.4571 19.344C96.0838 19.6747 95.8545 20.1387 95.7691 20.736H99.9771ZM108.881 16.08C108.486 16.08 108.155 15.9573 107.889 15.712C107.633 15.456 107.505 15.1413 107.505 14.768C107.505 14.3947 107.633 14.0853 107.889 13.84C108.155 13.584 108.486 13.456 108.881 13.456C109.275 13.456 109.601 13.584 109.857 13.84C110.123 14.0853 110.257 14.3947 110.257 14.768C110.257 15.1413 110.123 15.456 109.857 15.712C109.601 15.9573 109.275 16.08 108.881 16.08ZM109.985 17.136V26H107.745V17.136H109.985ZM115.59 26.144C114.864 26.144 114.214 26.016 113.638 25.76C113.062 25.4933 112.603 25.136 112.262 24.688C111.931 24.24 111.75 23.744 111.718 23.2H113.974C114.016 23.5413 114.182 23.824 114.47 24.048C114.768 24.272 115.136 24.384 115.574 24.384C116 24.384 116.331 24.2987 116.566 24.128C116.811 23.9573 116.934 23.7387 116.934 23.472C116.934 23.184 116.784 22.9707 116.486 22.832C116.198 22.6827 115.734 22.5227 115.094 22.352C114.432 22.192 113.888 22.0267 113.462 21.856C113.046 21.6853 112.683 21.424 112.374 21.072C112.075 20.72 111.926 20.2453 111.926 19.648C111.926 19.1573 112.064 18.7093 112.342 18.304C112.63 17.8987 113.035 17.5787 113.558 17.344C114.091 17.1093 114.715 16.992 115.43 16.992C116.486 16.992 117.328 17.2587 117.958 17.792C118.587 18.3147 118.934 19.024 118.998 19.92H116.854C116.822 19.568 116.672 19.2907 116.406 19.088C116.15 18.8747 115.803 18.768 115.366 18.768C114.96 18.768 114.646 18.8427 114.422 18.992C114.208 19.1413 114.102 19.3493 114.102 19.616C114.102 19.9147 114.251 20.144 114.55 20.304C114.848 20.4533 115.312 20.608 115.942 20.768C116.582 20.928 117.11 21.0933 117.526 21.264C117.942 21.4347 118.299 21.7013 118.598 22.064C118.907 22.416 119.067 22.8853 119.078 23.472C119.078 23.984 118.934 24.4427 118.646 24.848C118.368 25.2533 117.963 25.5733 117.43 25.808C116.907 26.032 116.294 26.144 115.59 26.144ZM135.737 17.008C136.825 17.008 137.7 17.344 138.361 18.016C139.033 18.6773 139.369 19.6053 139.369 20.8V26H137.129V21.104C137.129 20.4107 136.953 19.8827 136.601 19.52C136.249 19.1467 135.769 18.96 135.161 18.96C134.553 18.96 134.068 19.1467 133.705 19.52C133.353 19.8827 133.177 20.4107 133.177 21.104V26H130.937V21.104C130.937 20.4107 130.761 19.8827 130.409 19.52C130.057 19.1467 129.577 18.96 128.969 18.96C128.35 18.96 127.86 19.1467 127.497 19.52C127.145 19.8827 126.969 20.4107 126.969 21.104V26H124.729V17.136H126.969V18.208C127.257 17.8347 127.625 17.5413 128.073 17.328C128.532 17.1147 129.033 17.008 129.577 17.008C130.27 17.008 130.889 17.1573 131.433 17.456C131.977 17.744 132.398 18.16 132.697 18.704C132.985 18.192 133.401 17.7813 133.945 17.472C134.5 17.1627 135.097 17.008 135.737 17.008ZM149.975 17.136L144.487 30.192H142.103L144.023 25.776L140.471 17.136H142.983L145.271 23.328L147.591 17.136H149.975ZM166.003 17.008C167.091 17.008 167.965 17.344 168.627 18.016C169.299 18.6773 169.635 19.6053 169.635 20.8V26H167.395V21.104C167.395 20.4107 167.219 19.8827 166.867 19.52C166.515 19.1467 166.035 18.96 165.427 18.96C164.819 18.96 164.333 19.1467 163.971 19.52C163.619 19.8827 163.443 20.4107 163.443 21.104V26H161.203V21.104C161.203 20.4107 161.027 19.8827 160.675 19.52C160.323 19.1467 159.843 18.96 159.235 18.96C158.616 18.96 158.125 19.1467 157.763 19.52C157.411 19.8827 157.235 20.4107 157.235 21.104V26H154.995V17.136H157.235V18.208C157.523 17.8347 157.891 17.5413 158.339 17.328C158.797 17.1147 159.299 17.008 159.843 17.008C160.536 17.008 161.155 17.1573 161.699 17.456C162.243 17.744 162.664 18.16 162.963 18.704C163.251 18.192 163.667 17.7813 164.211 17.472C164.765 17.1627 165.363 17.008 166.003 17.008ZM175.696 26.144C174.843 26.144 174.075 25.9573 173.392 25.584C172.71 25.2 172.171 24.6613 171.776 23.968C171.392 23.2747 171.2 22.4747 171.2 21.568C171.2 20.6613 171.398 19.8613 171.792 19.168C172.198 18.4747 172.747 17.9413 173.44 17.568C174.134 17.184 174.907 16.992 175.76 16.992C176.614 16.992 177.387 17.184 178.08 17.568C178.774 17.9413 179.318 18.4747 179.712 19.168C180.118 19.8613 180.32 20.6613 180.32 21.568C180.32 22.4747 180.112 23.2747 179.696 23.968C179.291 24.6613 178.736 25.2 178.032 25.584C177.339 25.9573 176.56 26.144 175.696 26.144ZM175.696 24.192C176.102 24.192 176.48 24.096 176.832 23.904C177.195 23.7013 177.483 23.4027 177.696 23.008C177.91 22.6133 178.016 22.1333 178.016 21.568C178.016 20.7253 177.792 20.08 177.344 19.632C176.907 19.1733 176.368 18.944 175.728 18.944C175.088 18.944 174.55 19.1733 174.112 19.632C173.686 20.08 173.472 20.7253 173.472 21.568C173.472 22.4107 173.68 23.0613 174.096 23.52C174.523 23.968 175.056 24.192 175.696 24.192ZM186.875 17.008C187.931 17.008 188.785 17.344 189.435 18.016C190.086 18.6773 190.411 19.6053 190.411 20.8V26H188.171V21.104C188.171 20.4 187.995 19.8613 187.643 19.488C187.291 19.104 186.811 18.912 186.203 18.912C185.585 18.912 185.094 19.104 184.731 19.488C184.379 19.8613 184.203 20.4 184.203 21.104V26H181.963V17.136H184.203V18.24C184.502 17.856 184.881 17.5573 185.339 17.344C185.809 17.12 186.321 17.008 186.875 17.008ZM200.782 21.376C200.782 21.696 200.76 21.984 200.718 22.24H194.238C194.291 22.88 194.515 23.3813 194.91 23.744C195.304 24.1067 195.79 24.288 196.366 24.288C197.198 24.288 197.79 23.9307 198.142 23.216H200.558C200.302 24.0693 199.811 24.7733 199.086 25.328C198.36 25.872 197.47 26.144 196.414 26.144C195.56 26.144 194.792 25.9573 194.11 25.584C193.438 25.2 192.91 24.6613 192.526 23.968C192.152 23.2747 191.965 22.4747 191.965 21.568C191.965 20.6507 192.152 19.8453 192.526 19.152C192.899 18.4587 193.422 17.9253 194.094 17.552C194.766 17.1787 195.539 16.992 196.414 16.992C197.256 16.992 198.008 17.1733 198.67 17.536C199.342 17.8987 199.859 18.416 200.222 19.088C200.595 19.7493 200.782 20.512 200.782 21.376ZM198.462 20.736C198.451 20.16 198.243 19.7013 197.838 19.36C197.432 19.008 196.936 18.832 196.35 18.832C195.795 18.832 195.326 19.0027 194.942 19.344C194.568 19.6747 194.339 20.1387 194.254 20.736H198.462ZM210.897 17.136L205.409 30.192H203.025L204.945 25.776L201.393 17.136H203.905L206.193 23.328L208.513 17.136H210.897Z" fill="white"/>
<defs>
<clipPath id="clip0_35212_417">
<rect width="27.4286" height="27.4286" fill="white" transform="translate(6.85715 6.85714)"/>
</clipPath>
</defs>
</svg>
